<svg xmlns="http://www.w3.org/2000/svg" width="36.595" height="36.596" viewBox="0 0 36.595 36.596">
  <g id="Group_67" data-name="Group 67" transform="translate(0.125 0.125)">
    <path id="Path_75" data-name="Path 75" d="M768.953,10.927v2.839h3.8c.05,0,.247.3.319.355v.355c-.085.124-.312.355-.461.355h-3.656V17.6h3.584c.218,0,.44.244.533.426v.284c-.093.182-.315.426-.533.426h-3.584V21.5h3.656c.149,0,.376.231.461.355v.355l-.392.353-3.725,0v2.839h3.726c.1,0,.316.268.391.355v.356c-.075.086-.288.355-.391.355h-3.726v3.656a2.824,2.824,0,0,1-.853,1.418.558.558,0,0,1-.787-.424c-.028-.426.655-.818.578-1.346-.065-7.941.115-15.914-.091-23.837a1.413,1.413,0,0,0-1.366-.906l-21.158.006a.538.538,0,0,1-.3-.907,2.618,2.618,0,0,1,.3-.162h1.313V.386c0-.1.269-.316.355-.39h.356c.086.075.355.288.355.39V3.971H750.5V.315c0-.05.3-.247.355-.319h.355c.123.085.355.312.355.461V3.971h2.768V.529c0-.218.243-.44.426-.533h.284c.182.092.426.315.426.533V3.971h2.768V.457c0-.149.231-.376.355-.461h.355l.353.392,0,3.583h2.84V.386c0-.1.268-.316.355-.39h.355c.087.075.355.288.355.39V3.971h3.513c.869,0,2.236,1.125,2.236,2.023V9.862h3.726c.1,0,.316.268.391.356v.355c-.075.086-.288.355-.391.355Z" transform="translate(-736.725 0.004)" fill="#111" stroke="#111" stroke-width="0.25"/>
    <path id="Path_76" data-name="Path 76" d="M775.2,103.337a1.838,1.838,0,0,0-1.6-1.171l-14.748.021a1.786,1.786,0,0,0-1.474,1.437c.045,5.108-.089,10.239.068,15.335a1.842,1.842,0,0,0,1.669,1.17h14.414a1.768,1.768,0,0,0,1.739-1.526Zm-16.755.358c0-.13.4-.461.532-.461h11.18v5.607a2.381,2.381,0,0,0-1.917,1.917h-3.976v-2.768a2.125,2.125,0,0,0,1.67-2.7,2.171,2.171,0,0,0-4.225.143h-3.265Zm13.249,8.669a1.471,1.471,0,0,1-2.079-2.078,1.471,1.471,0,0,1,2.079,2.078M763.942,107a1.133,1.133,0,1,1-.19-2.258,1.133,1.133,0,0,1,.19,2.258m-1.915,6.851a1.013,1.013,0,0,1,.308,1.972,1.013,1.013,0,1,1-.308-1.972m3.8,5.214h-3.549v-2.129a2.1,2.1,0,1,0-1.065-.107v2.129l-.107.107h-2.058c-.138,0-.6-.3-.6-.461V106.5h3.23a9.256,9.256,0,0,0,.576.915,7.648,7.648,0,0,0,.939.622l.013,3.394c-.007.1.292.392.317.392h2.307Zm8.376-.461c0,.159-.466.461-.6.461H767l-.106-.107V116.72H774.2Zm0-2.946H766.89v-3.726l.106-.107h1.136a2.855,2.855,0,0,0,1.948,1.955,2.533,2.533,0,0,0,1.139-4.937v-5.607h2.449c.136,0,.532.332.532.461Z" transform="translate(-748.148 -93.083)" fill="#111" stroke="#1a7fae" stroke-width="0.25"/>
    <path id="Path_77" data-name="Path 77" d="M726.482,338.076H723.82v3.8c0,.166-.347.394-.533.394s-.533-.228-.533-.394v-3.8h-2.839v3.869a1.332,1.332,0,0,1-.3.266.546.546,0,0,1-.762-.408v-3.727h-2.768v3.656a.627.627,0,0,1-.539.533.617.617,0,0,1-.6-.533v-3.656h-2.768V341.8a.546.546,0,0,1-.763.408,1.345,1.345,0,0,1-.3-.266v-3.869h-2.84v3.8c0,.166-.347.394-.532.394s-.533-.228-.533-.394v-3.8h-3.442a3.134,3.134,0,0,1-1.221-.412c-.432-.281-1.321-1.226-.769-1.719.6-.536.838.32,1.1.6a1.859,1.859,0,0,0,1.239.465h22.5c.6.155.357,1.062-.14,1.062" transform="translate(-697.341 -305.921)" fill="#111" stroke="#1a7fae" stroke-width="0.25"/>
    <path id="Path_78" data-name="Path 78" d="M660.691,45.563c0,.6-.649.517-1.036.672a1.351,1.351,0,0,0-.808,1.037l0,22.071a.56.56,0,0,1-.78.493,1.87,1.87,0,0,1-.285-.283V67.532H654.05c-.166,0-.394-.347-.394-.533s.228-.533.394-.533h3.727V63.628h-3.8a1.345,1.345,0,0,1-.266-.3.546.546,0,0,1,.408-.763h3.656V59.8h-3.585a.627.627,0,0,1-.532-.538.617.617,0,0,1,.532-.6h3.585V55.891h-3.656a.546.546,0,0,1-.408-.762,1.333,1.333,0,0,1,.266-.3h3.8V51.987H654.05c-.166,0-.394-.347-.394-.533s.228-.533.394-.533h3.727V47.054a2.754,2.754,0,0,1,1.086-1.611c.436-.284,1.83-.748,1.828.12" transform="translate(-653.656 -41.056)" fill="#111" stroke="#1a7fae" stroke-width="0.25"/>
  </g>
</svg>
