<svg id="Group_76" data-name="Group 76" xmlns="http://www.w3.org/2000/svg" xmlns:xlink="http://www.w3.org/1999/xlink" width="32.285" height="32.276" viewBox="0 0 32.285 32.276">
  <defs>
    <clipPath id="clip-path">
      <rect id="Rectangle_39" data-name="Rectangle 39" width="32.285" height="32.276" fill="#111"/>
    </clipPath>
  </defs>
  <g id="Group_75" data-name="Group 75" clip-path="url(#clip-path)">
    <path id="Path_87" data-name="Path 87" d="M32.027,4.193A3.19,3.19,0,0,0,31.6.891c-1.13-1.287-2.8-.953-4.214-.4-2.63,1.025-4.354,3.776-6.464,5.549l-2.234-.49a1.507,1.507,0,0,0-1.646-2.279c-.642.1-1.26,1.147-1.8,1.5l-2.565-.494c.064-.374.385-.528.469-.926A1.5,1.5,0,0,0,10.91,1.7c-.476.259-1.651,1.7-1.913,1.73L3.571,2.257c-.748-.308-2.331,1.284-2.55,1.832-.52,1.3.638,1.716,1.53,2.235,3.873,2.257,7.936,4.216,11.8,6.486.07.041.141-.025.106.144L7.939,20.066l-6.626.4c-.734.684-2.07,1.624-.76,2.5l6.353,2.409,2.41,6.353c.888,1.293,1.823-.024,2.5-.76l.4-6.626L18.861,18.2l.593-.379L26.5,30.72c1.057,1.416,2.316.244,3.12-.745a1.412,1.412,0,0,0,.4-1.333l-1.162-5.355c.428-.753,1.72-1.449,1.909-2.324a1.5,1.5,0,0,0-1.83-1.83c-.4.085-.551.4-.926.469l-.494-2.565c.357-.539,1.4-1.157,1.5-1.8a1.5,1.5,0,0,0-2.279-1.646l-.469-2.283c2.006-2.271,4.9-4.061,5.76-7.114m-14.435.339a.54.54,0,0,1-.761.592c.067-.135.615-.743.761-.592M10.777,3.6a8.347,8.347,0,0,1,.862-.834c.265-.071.345.152.2.372a9.5,9.5,0,0,1-.683.672c-.227.1-.619.088-.38-.21m18.47,16.776a.227.227,0,0,1,.282.115c.07.266-.8.895-.973,1.14-.506-.241.533-1.212.691-1.255m-1.5-5.686c.152.146-.457.694-.592.762a.54.54,0,0,1,.592-.762M24.98,11.665l3.767,17.226a5.8,5.8,0,0,1-.951,1.041c-.071.05-.089.116-.213.083l-7.37-13.245a1.306,1.306,0,0,0-1.73.041l-7.536,6.942c-.105,1.563-.2,3.129-.3,4.694-.024.364.029.737,0,1.1-.015.208-.1,1.06-.3,1.057-.912-1.736-1.362-3.822-2.2-5.583a2.059,2.059,0,0,0-.334-.6,2.482,2.482,0,0,0-.555-.291c-1.745-.835-3.79-1.3-5.543-2.161-.165-.242.888-.329,1.018-.338.365-.027.739.026,1.1,0,1.564-.1,3.131-.2,4.694-.3l7.176-7.894a1.311,1.311,0,0,0-.63-1.7L2.269,4.7c-.034-.123.033-.141.083-.213a5.842,5.842,0,0,1,1.041-.951L21.106,7.328a1.154,1.154,0,0,0,.592-.257c1.846-1.357,3.27-3.831,5.4-5.009,1.369-.756,4.081-1.516,3.856.978-.291,3.237-3.938,5.2-5.7,7.5a1.227,1.227,0,0,0-.273,1.124" transform="translate(0 0)" fill="#111"/>
  </g>
</svg>
