<svg id="Group_64" data-name="Group 64" xmlns="http://www.w3.org/2000/svg" width="38.851" height="29.233" viewBox="0 0 38.851 29.233">
  <path id="Path_71" data-name="Path 71" d="M1223.243,948.758a2.756,2.756,0,0,0-2.983-2.192c-2.041.64-3.963,1.632-5.95,2.42-.4-1.576-1.657-2.006-3.147-1.977-2.816.057-5.65.324-8.473.152-1.646-1.254-3.434-2.392-5.61-2.276-2.213.118-3.858,1.627-5.083,3.329l-6.871.019a.758.758,0,0,0-.652.788c-.228,2.372.179,5.106,0,7.517a.757.757,0,0,0,.793.724c2.182.21,4.919-.289,7.038,0,.958.132,2.36,1.113,3.5,1.045,4.484-.018,9.06.314,13.545.089a7.561,7.561,0,0,0,4.269-1.413c2.956-1.827,5.77-3.909,8.707-5.767a3.018,3.018,0,0,0,.915-1.625c.034-.257-.024-.57,0-.835m-2.1,1.429c-3.057,1.772-6.014,4.315-9.087,5.993a5.856,5.856,0,0,1-1.671.6c-4.476-.007-9.055.333-13.532.094a10.111,10.111,0,0,1-3.218-.721c-.158-.057-.823-.416-.872-.416h-6.777v-5.995h6.7c.247,0,.987-1.255,1.211-1.519,2.053-2.424,4.436-2.234,6.908-.547.637.436.9.906,1.734.994a27.5,27.5,0,0,0,3.016.006c2.147-.014,4.275-.062,6.42-.131.463,0,1.079.789.924,1.2a8.592,8.592,0,0,1-2.156,1.4c-2.835,1.163-6.135.218-9.048.569a.769.769,0,0,0-.145,1.515c4.352-.16,9.165.936,12.549-2.515l6.18-2.607a1.132,1.132,0,0,1,.862,2.078" transform="translate(-1184.402 -929.245)" fill="#111"/>
  <path id="Path_72" data-name="Path 72" d="M1352.191,791.068a.84.84,0,0,0-.549-.587,10.43,10.43,0,0,0-3.227.069c-1.987.278-4.264,1.093-5.426,2.8l-.109,0c-2.432-2.728-6.905-2.557-10.127-1.57-1.35.414-1.252.661-1.2,2.069.267,6.955,3.8,10.552,10.907,9.256.748-.137,1.535-.451,2.238-.565,2.549-.412,4.9-.469,6.693-2.7,1.7-2.114,1.7-6.311.8-8.765m-15.032,6.188,5.68,4.209a10.407,10.407,0,0,1-5.979-.114c-3.031-1.233-3.7-5.156-3.777-8.069,2.35-.689,5.525-1.1,7.706.26,2.115,1.319,2.8,4.3,2.958,6.634l-5.651-4.088a.752.752,0,0,0-.938,1.168m12.53,2.159a7.552,7.552,0,0,1-4.343,1.511c-.125-.63-.088-1.279-.17-1.916a14.231,14.231,0,0,0-.67-2.819c-.135-.382-.535-1.069-.6-1.384-.067-.346.7-1.118.979-1.339,1.588-1.265,4-1.52,5.968-1.554.525,2.374.884,5.745-1.169,7.5" transform="translate(-1316.644 -790.374)" fill="#111"/>
  <path id="Path_73" data-name="Path 73" d="M1315.423,1014.029a.763.763,0,1,1-.342-1.487.763.763,0,0,1,.342,1.487" transform="translate(-1301.32 -990.054)" fill="#111"/>
</svg>
