<svg xmlns="http://www.w3.org/2000/svg" width="32.303" height="32.027" viewBox="0 0 32.303 32.027">
  <g id="Group_77" data-name="Group 77" transform="translate(0.125 0.125)">
    <path id="Path_18" data-name="Path 18" d="M441.81,194l-.1-.165-15.742-6.56h-.3c-4.922,2.175-10.026,3.969-14.936,6.163-.386.172-.964.282-.94.8l.033,19a.725.725,0,0,0,.486.381l15.538,5.427c4.877-1.764,9.833-3.334,14.692-5.143.462-.172,1.318-.312,1.3-.9Zm-10.653-3.44,2.737,1.108-.164.135-13.7,5.193-2.621-.856,13.552-5.582Zm-11.75,7.383v7.61l-3-1V196.94Zm-7.391-3.886,13.717-5.65a.528.528,0,0,1,.32.052,28.472,28.472,0,0,1,3.213,1.326c.1.05.25.091.289.212l-13.6,5.529-.285-.016-3.8-1.307Zm13.266,23.714L410.861,212.7v-17.76l4.462,1.646.074,8.605a1.219,1.219,0,0,0,.588.347c1.215.506,2.586.819,3.806,1.339.212.128.683-.263.683-.422v-8.112l4.808,1.669Zm-3.739-20.163,13.792-5.273,4.28,1.723.154.146L425.9,199.063Zm19.228,15.09L426.35,217.77V200.011l14.421-5.074Z" transform="translate(-409.789 -187.273)" fill="#111" stroke="#111" stroke-width="0.25"/>
    <path id="Path_19" data-name="Path 19" d="M760.274,381.542c-.078.6-.99.661-1.074-.335-.17-2.006.131-4.247,0-6.278a.658.658,0,0,1,.45-.623.568.568,0,0,1,.584.257Z" transform="translate(-730.491 -358.953)" fill="#111" stroke="#111" stroke-width="0.25"/>
    <path id="Path_20" data-name="Path 20" d="M760.481,335.8a.539.539,0,0,1-.924.083c-.238-.362-.29-2.1.319-2.227a.577.577,0,0,1,.584.256,11.591,11.591,0,0,1,.02,1.888" transform="translate(-730.714 -321.638)" fill="#111" stroke="#111" stroke-width="0.25"/>
  </g>
</svg>
