<svg id="Group_60" data-name="Group 60" xmlns="http://www.w3.org/2000/svg" xmlns:xlink="http://www.w3.org/1999/xlink" width="35.579" height="23.421" viewBox="0 0 35.579 23.421">
  <defs>
    <clipPath id="clip-path">
      <rect id="Rectangle_38" data-name="Rectangle 38" width="35.579" height="23.421" fill="#111"/>
    </clipPath>
  </defs>
  <g id="Group_59" data-name="Group 59" clip-path="url(#clip-path)">
    <path id="Path_84" data-name="Path 84" d="M33.746,7.973c1.606-.392,1.035-2.9-.419-3.032a9.621,9.621,0,0,0-1.888.036,1.437,1.437,0,0,0-.8.656c-.342-.615-.6-1.276-.946-1.891C29.278,2.99,28.013.962,27.231.684a22.226,22.226,0,0,0-3.34-.418A69.344,69.344,0,0,0,10.93.342a18.469,18.469,0,0,0-2.575.34C7.858.843,6.949,2.043,6.641,2.5A29.978,29.978,0,0,0,4.947,5.633a1.313,1.313,0,0,0-1.071-.692,10.319,10.319,0,0,0-1.825.021A1.787,1.787,0,0,0,1.2,7.62l.643.428C1.147,8.622.1,9.3,0,10.274L.034,22.358a1.275,1.275,0,0,0,.943.975,26.889,26.889,0,0,0,4.117.011c.917-.125,1.147-1.033,1.043-1.833H29.451c-.1.8.126,1.708,1.042,1.833a26.426,26.426,0,0,0,4.052,0,1.24,1.24,0,0,0,.989-.851l.045-12.363C35.456,9.1,34.46,8.581,33.746,7.973m-2-1.757,1.494-.036.2.6H31.6ZM8.84,1.857A67.286,67.286,0,0,1,26.7,1.833c1.51,1.23,2.278,3.213,3.063,4.951H5.829C6.605,5.052,7.372,3.117,8.84,1.857M2.262,6.247l1.524-.066.279.6H2.147ZM4.909,22.123H1.228v-.69c.108-.046.229.077.268.077H4.909Zm-3.3-1.875a.593.593,0,0,1-.381-.539l.017-9.419c.136-.6,2.606-2.231,3.34-2.259L30.8,8.009c.806-.068,3.4,1.547,3.547,2.2l-.017,9.69a.6.6,0,0,1-.614.383ZM34.36,22.123H30.678V21.51c1.093-.082,2.339.11,3.413,0,.053-.006.156-.121.268-.077Z" transform="translate(0 0)" fill="#111"/>
    <path id="Path_85" data-name="Path 85" d="M50.271,158.634l-30.893.017c-.876.2-.237,2,.058,2.518a2.2,2.2,0,0,0,1.764,1.15l27.459,0a2.37,2.37,0,0,0,1.939-1.665c.209-.581.586-1.93-.327-2.017M24.5,161.094a22.717,22.717,0,0,1-3.362-.021c-.522-.107-.812-.733-.9-1.209h5.062c-.235.314-.407,1.183-.8,1.231m1.568,0c.235-.315.407-1.184.8-1.232l16.11,0c.27.05.547.983.729,1.228Zm22.569-.017a22.7,22.7,0,0,1-3.361.021c-.394-.047-.566-.917-.8-1.231h5.062c-.087.477-.377,1.1-.9,1.209" transform="translate(-17.098 -143.261)" fill="#111"/>
    <path id="Path_86" data-name="Path 86" d="M55.731,91.9c-.283-.68-1.375-2.038-2.152-2.068a11.222,11.222,0,0,0-2.326,1.191,11.011,11.011,0,0,0-2.309,1.833L32.5,92.9a18.164,18.164,0,0,0-4.283-2.927.952.952,0,0,0-.53-.126c-1.01.115-2.534,2.228-2.344,3.227.13.682,1.294,1.019,1.885,1.186a8.3,8.3,0,0,0,5.189-.136h16.5a8.306,8.306,0,0,0,5.189.136c1.417-.392,2.313-.715,1.631-2.355M28.442,93.268a7.58,7.58,0,0,1-1.685-.462c-.084-.048-.129-.058-.131-.174,0-.314.891-1.469,1.19-1.471A13.585,13.585,0,0,1,31,93.279a8.694,8.694,0,0,1-2.556-.011m26.126-.462a7.58,7.58,0,0,1-1.685.462,8.7,8.7,0,0,1-2.557.011,13.611,13.611,0,0,1,3.183-2.118c.291,0,1.193,1.167,1.19,1.471,0,.115-.047.126-.131.174" transform="translate(-22.869 -81.127)" fill="#111"/>
  </g>
</svg>
