<svg xmlns="http://www.w3.org/2000/svg" width="34.746" height="26.017" viewBox="0 0 34.746 26.017">
  <g id="Group_63" data-name="Group 63" transform="translate(0)">
    <path id="Path_67" data-name="Path 67" d="M949.336,770.976v1.188c.006-.4.007-.8,0-1.188" transform="translate(-914.595 -761.63)" fill="#111"/>
    <path id="Path_68" data-name="Path 68" d="M522.042,671.119l-10.424.005a2.242,2.242,0,0,0-1.8,2.193c.252,4.667-.325,9.67,0,14.3a2.253,2.253,0,0,0,1.941,2.258l6.208.023c.747.15.709,1.416-.117,1.41-2.019-.135-4.244.169-6.236,0a3.753,3.753,0,0,1-3.215-3.118V672.812a3.716,3.716,0,0,1,3.62-3.186c3.261-.207,6.741.162,10.026,0a.747.747,0,1,1,0,1.49" transform="translate(-508.396 -668.206)" fill="#111"/>
    <path id="Path_69" data-name="Path 69" d="M642.846,662.454h-5.79l2.034-9.383a.741.741,0,0,0-1.218-.537l-10.151,14.638a.769.769,0,0,0,.565,1.107h5.723l-3.03,9.2a.724.724,0,0,0,1.024.82c3.911-4.881,7.7-9.882,11.472-14.872a.785.785,0,0,0-.629-.968M633.8,673.765c-.125.016-.054-.138-.037-.206.461-1.884,1.415-3.84,1.918-5.736.166-.354-.187-1.034-.559-1.034h-5.384l7.078-10.227-1.388,6.4a.8.8,0,0,0,.643.982h5.18Z" transform="translate(-618.229 -652.361)" fill="#111"/>
    <path id="Path_70" data-name="Path 70" d="M779.751,678.671c-.007.468-.021.938-.035,1.41,0,.094-.006.188-.009.283,0,.112-.008.225-.011.336l-.017.513c0,.121-.008.243-.011.364,0,.106-.006.211-.009.317s-.005.219-.008.328c0,.143,0,.285-.006.428,0,.031,0,.064,0,.1,0,.126,0,.251,0,.377s0,.25,0,.374c0,.1,0,.2,0,.3,0,.019,0,.039,0,.058,0,.122.005.244.01.366,0,.072,0,.143.008.215.005.134.013.267.021.4a2.231,2.231,0,0,1-1.8,2.058c-.225.029-.993-.059-1.082.069-.071.41,0,.826-.049,1.238a3.64,3.64,0,0,1-3.2,3.036c-2.46.195-5.171-.154-7.658,0a.718.718,0,0,1-.062-1.422c2.42-.15,5.055.188,7.449,0a2.191,2.191,0,0,0,2.062-2c.049-.543-.145-1.673.167-2.067.555-.7,2.315.276,2.675-.779l.006-8.94c-.114-1.246-2.012-.212-2.646-.876-.366-.384-.147-1.61-.2-2.168-.3-3-4.626-1.6-6.586-1.946a.741.741,0,0,1,.119-1.475,31.908,31.908,0,0,1,4.27,0,3.713,3.713,0,0,1,3.62,4.338c1.487-.146,2.789.542,2.915,2.131,0,.065.01.129.013.195,0,.045.006.09.009.135,0,.026,0,.052,0,.078,0,.056.007.113.01.169.006.113.011.226.015.34,0,.057,0,.114.005.171,0,.121.007.241.009.363v0c.007.392.006.789,0,1.188" transform="translate(-745.01 -668.137)" fill="#111"/>
  </g>
</svg>
