<svg id="Group_65" data-name="Group 65" xmlns="http://www.w3.org/2000/svg" width="37.502" height="45.63" viewBox="0 0 37.502 45.63">
  <path id="Path_64" data-name="Path 64" d="M591.2,1373.65l.031-.224a5.088,5.088,0,1,0-7.02,0l.031.224-7.07,21.872a.839.839,0,0,0,1.331.921l9.182-8.239c.115-.02.435.252.546.343,2.979,2.442,5.75,5.4,8.708,7.9a.919.919,0,0,0,1.143-.029,1.574,1.574,0,0,0,.231-.542Zm-3.909-7.329c4.285-.507,5.352,5.723,1.368,6.765-4.816,1.261-6.115-6.2-1.368-6.765m-7.616,26.759,3.106-9.367,3.716,3.308Zm8.012-7.252-4.325-3.768-.014-.321,2.337-7.3a5.489,5.489,0,0,0,4.072,0l2.349,7.568Zm1.259,1.193,3.716-3.309,3.107,9.368Z" transform="translate(-568.977 -1350.999)" fill="#111"/>
  <path id="Path_65" data-name="Path 65" d="M513.913,1240.087a13.4,13.4,0,0,1-2.316,1.66.829.829,0,0,1-.934-1.243,17.143,17.143,0,1,0-17.992-.06.828.828,0,0,1-.8,1.321,16.631,16.631,0,0,1-3.32-2.493c-11.529-11.272-4.155-31.072,11.9-32.108,17.891-1.155,27.071,21.274,13.468,32.923" transform="translate(-482.941 -1207.121)" fill="#111"/>
  <path id="Path_66" data-name="Path 66" d="M582.262,1305.9c-.479.521-1.2,1.4-1.891.766-.89-.819.387-1.5.872-2.091a10.288,10.288,0,1,0-15.634-.055c.5.6,1.736,1.253.969,2.094-.672.74-1.4-.147-1.891-.663-6.789-7.178-2-19.23,7.825-19.987,10.721-.829,17.02,12.028,9.75,19.936" transform="translate(-554.702 -1279.095)" fill="#111"/>
</svg>
