<svg xmlns="http://www.w3.org/2000/svg" width="36.637" height="36.647" viewBox="0 0 36.637 36.647">
  <g id="Group_62" data-name="Group 62" transform="translate(0.165 0.125)">
    <path id="Path_79" data-name="Path 79" d="M35.631,480.477c-.184-.532-.276-.472-.785-.634-1.3-.415-2.709-.654-4.016-1.067-.447-.056-.582.721-1.015.422l-5.536-5.518c.535-6.357-8.589-6.342-7.916,0l-5.752,5.761a4.013,4.013,0,0,0-3.175,7.216l0,8.038a6.349,6.349,0,0,0-3.956,5.245c-1.338-.021-2.859.115-3.328,1.6A14,14,0,0,0,.04,504.79c.022.241.042.428.3.524l18.673-.006.187-.187c-.049-1.189.328-3.013-.273-4.055-.641-1.112-1.978-1.13-3.12-1.1a6.161,6.161,0,0,0-3.949-5.236l.024-8.055a4.129,4.129,0,0,0,1.716-4.029l5.767-5.821,1.814-.047,5.306,5.3c.611.9-.474.857-.446,1.487l1.3,4.6a.649.649,0,0,0,.189.108,25.624,25.624,0,0,0,2.815.763.5.5,0,0,0,.151-.966c-.351-.167-2.309-.526-2.407-.655l-.99-3.763c.3-.509.461-.133.806-.01a2.432,2.432,0,0,0,2.911-3.661l.119-.179,3.767,1c.183.137.494,2.38.769,2.706a.514.514,0,0,0,.877-.311c-.278-.872-.417-1.874-.713-2.729M16.883,500.941c.482-.047,1.383.509,1.383,1.008v2.427H1.014v-2.353a4.132,4.132,0,0,1,.236-.51,1.57,1.57,0,0,1,1.366-.576c4.628-.311,9.6.24,14.267,0m-2.052-.972H4.45a5.194,5.194,0,0,1,3.024-4.183,2.157,2.157,0,0,0,4.295,0,5.02,5.02,0,0,1,3.062,4.182m-6.423-4.294V487.2a5.563,5.563,0,0,0,2.465,0v8.627a2.983,2.983,0,0,1-.19.407,1.227,1.227,0,0,1-2.092-.067,3.765,3.765,0,0,1-.182-.49m1.456-9.3c-3.906.266-4.382-5.652-.5-6.027,4.007-.386,4.474,5.757.5,6.027m3.325-4.778a3.734,3.734,0,0,0-1.643-1.755l5.226-5.191a3.9,3.9,0,0,0,1.643,1.755Zm6.553-5.77c-3.229-.438-3.276-5.477.075-5.937,4.5-.618,4.663,6.578-.075,5.937m6.82,4.77c-.031.071.044.13-.117.1l-4.151-4.14-.068-.262a3.339,3.339,0,0,0,1.6-1.646l4.37,4.405a2.475,2.475,0,0,0-1.637,1.54m2.553,2.251a1.466,1.466,0,0,1-.563-2.877,1.466,1.466,0,0,1,.563,2.877" transform="translate(0 -468.917)" fill="#111" stroke="#111" stroke-width="0.25"/>
    <path id="Path_80" data-name="Path 80" d="M104.432,768.692c-.63.3-.933-.706-.413-.865.662-.2.988.591.413.865" transform="translate(-94.588 -741.39)" fill="#111" stroke="#111" stroke-width="0.25"/>
    <path id="Path_81" data-name="Path 81" d="M92.559,613.767a1.66,1.66,0,0,0,0,3.318,1.66,1.66,0,0,0,0-3.318m.13,2.335c-.838.137-1.071-1.146-.339-1.316a.681.681,0,1,1,.339,1.316" transform="translate(-82.92 -600.97)" fill="#111" stroke="#111" stroke-width="0.25"/>
    <path id="Path_82" data-name="Path 82" d="M212.484,494.83a1.655,1.655,0,0,0,.635,3.248c2.053-.3,1.6-3.629-.635-3.248m.489,2.282a.679.679,0,0,1-.341-1.315.679.679,0,0,1,.341,1.315" transform="translate(-192.519 -492.514)" fill="#111" stroke="#111" stroke-width="0.25"/>
    <path id="Path_83" data-name="Path 83" d="M321.511,605.769a.491.491,0,0,1-.265-.945.491.491,0,0,1,.265.945" transform="translate(-292.544 -592.803)" fill="#111" stroke="#111" stroke-width="0.25"/>
  </g>
</svg>
