<svg xmlns="http://www.w3.org/2000/svg" width="37.896" height="37.803" viewBox="0 0 37.896 37.803">
  <path id="Path_74" data-name="Path 74" d="M1517.961,362.4c-.115-1.656-1.52-3.527-3.3-3.527h-7.2v-7.185c0-1.762-1.882-3.184-3.535-3.291-3.174-.206-6.569.164-9.767,0a3.779,3.779,0,0,0-3.454,3.29v7.185h-7.2c-1.713,0-3.18,1.831-3.3,3.447-.242,3.279.157,6.884.04,10.2a3.811,3.811,0,0,0,3.258,3.081h7.2v7.184a3.779,3.779,0,0,0,3.454,3.29c3.2-.163,6.593.207,9.767,0,1.653-.106,3.535-1.529,3.535-3.291V375.6h7.2a3.79,3.79,0,0,0,3.3-3.448c-.174-3.183.221-6.592,0-9.749m-1.3,9.667a2.408,2.408,0,0,1-2.169,2.219c-2.447.264-5.311-.171-7.8.007a.614.614,0,0,0-.529.527c-.178,2.487.258,5.345-.005,7.788a2.411,2.411,0,0,1-2.224,2.165c-3.131-.207-6.594.265-9.685,0a2.4,2.4,0,0,1-2.224-2.165c-.255-2.452.167-5.293-.005-7.788a.614.614,0,0,0-.529-.527c-2.491-.178-5.356.257-7.8-.007a2.408,2.408,0,0,1-2.169-2.219c.208-3.123-.266-6.582,0-9.666a2.387,2.387,0,0,1,2.169-2.22c2.421-.25,5.341.274,7.718-.008a.626.626,0,0,0,.613-.525c.139-2.481-.2-5.185-.008-7.638a2.4,2.4,0,0,1,2.017-2.289c3.195.166,6.752-.294,9.9-.025a2.406,2.406,0,0,1,2.224,2.165c.263,2.442-.173,5.3.005,7.788a.614.614,0,0,0,.529.527c2.5.172,5.344-.248,7.8.005a2.4,2.4,0,0,1,2.169,2.22c.265,3.085-.207,6.541,0,9.666" transform="translate(-1480.134 -348.333)" fill="#111"/>
</svg>
